<svg xmlns="http://www.w3.org/2000/svg" viewBox="0 0 500 500"><g id="freepik--Coins--inject-10"><circle cx="108.63" cy="228.03" r="54.16" transform="translate(-129.43 143.6) rotate(-45)" style="fill:#F8C100"></circle><circle cx="108.63" cy="228.03" r="54.16" transform="translate(-129.43 143.6) rotate(-45)" style="opacity:0.4"></circle><circle cx="108.63" cy="228.03" r="45.48" transform="translate(-134.42 296.77) rotate(-80.32)" style="opacity:0.2"></circle><circle cx="111.5" cy="229.83" r="43.66" transform="matrix(0.07, -1, 1, 0.07, -125.66, 324.74)" style="fill:#F8C100"></circle><circle cx="111.5" cy="229.83" r="43.66" transform="matrix(0.07, -1, 1, 0.07, -125.66, 324.74)" style="opacity:0.4"></circle><path d="M126.61,223.86l2.85,12.35A3.51,3.51,0,0,1,129,239a3.67,3.67,0,0,1-2.33,1.65l-10.86,2.51,2,8.69a3.47,3.47,0,0,1-.48,2.77A3.51,3.51,0,0,1,115,256.2a3.68,3.68,0,0,1-2.83-.44,3.48,3.48,0,0,1-1.64-2.28l-2-8.79-10.77,2.49a3.54,3.54,0,0,1-2.74-.46,3.5,3.5,0,0,1-1.65-2.28,3.56,3.56,0,0,1,.46-2.76,3.5,3.5,0,0,1,2.28-1.63l25.2-5.81-1.18-5.13L95,234.9a3.55,3.55,0,0,1-2.76-.43,3.5,3.5,0,0,1-1.63-2.31l-2.84-12.3a3.66,3.66,0,0,1,2.74-4.39L101.23,213l-2-8.7a3.55,3.55,0,0,1,.42-2.73,3.59,3.59,0,0,1,2.44-1.68,3.51,3.51,0,0,1,2.73.46,3.57,3.57,0,0,1,1.62,2.29l2,8.69,11-2.52a3.63,3.63,0,0,1,2.81.47,3.48,3.48,0,0,1,1.66,2.25,3.79,3.79,0,0,1-2.81,4.49l-25.2,5.81L97,226.93l25.11-5.79a3.63,3.63,0,0,1,2.81.47A3.45,3.45,0,0,1,126.61,223.86Z" style="fill:#F8C100"></path><g style="opacity:0.7000000000000001"><path d="M126.61,223.86l2.85,12.35A3.51,3.51,0,0,1,129,239a3.67,3.67,0,0,1-2.33,1.65l-10.86,2.51,2,8.69a3.47,3.47,0,0,1-.48,2.77A3.51,3.51,0,0,1,115,256.2a3.68,3.68,0,0,1-2.83-.44,3.48,3.48,0,0,1-1.64-2.28l-2-8.79-10.77,2.49a3.54,3.54,0,0,1-2.74-.46,3.5,3.5,0,0,1-1.65-2.28,3.56,3.56,0,0,1,.46-2.76,3.5,3.5,0,0,1,2.28-1.63l25.2-5.81-1.18-5.13L95,234.9a3.55,3.55,0,0,1-2.76-.43,3.5,3.5,0,0,1-1.63-2.31l-2.84-12.3a3.66,3.66,0,0,1,2.74-4.39L101.23,213l-2-8.7a3.55,3.55,0,0,1,.42-2.73,3.59,3.59,0,0,1,2.44-1.68,3.51,3.51,0,0,1,2.73.46,3.57,3.57,0,0,1,1.62,2.29l2,8.69,11-2.52a3.63,3.63,0,0,1,2.81.47,3.48,3.48,0,0,1,1.66,2.25,3.79,3.79,0,0,1-2.81,4.49l-25.2,5.81L97,226.93l25.11-5.79a3.63,3.63,0,0,1,2.81.47A3.45,3.45,0,0,1,126.61,223.86Z" style="fill:#fff"></path></g><circle cx="195.33" cy="160.54" r="37.8" transform="translate(-53.37 206.13) rotate(-49.8)" style="fill:#F8C100"></circle><circle cx="195.33" cy="160.54" r="37.8" transform="translate(-53.37 206.13) rotate(-49.8)" style="opacity:0.4"></circle><circle cx="195.33" cy="160.54" r="31.74" transform="translate(-52.86 208.79) rotate(-50.42)" style="opacity:0.2"></circle><circle cx="196.54" cy="162.57" r="30.47" transform="translate(-51.97 220.02) rotate(-52.61)" style="fill:#F8C100"></circle><circle cx="196.54" cy="162.57" r="30.47" transform="translate(-51.97 220.02) rotate(-52.61)" style="opacity:0.4"></circle><path d="M207.82,163.66l-2.15,8.58a2.41,2.41,0,0,1-1.18,1.55,2.58,2.58,0,0,1-2,.29L195,172.19l-1.52,6a2.42,2.42,0,0,1-1.18,1.56,2.46,2.46,0,0,1-1.92.29,2.57,2.57,0,0,1-1.61-1.17,2.46,2.46,0,0,1-.3-1.94l1.53-6.1L182.5,169a2.47,2.47,0,0,1-1.56-1.16,2.43,2.43,0,0,1-.3-1.93,2.46,2.46,0,0,1,1.16-1.58,2.49,2.49,0,0,1,1.94-.28l17.5,4.39.9-3.56-17.45-4.38a2.43,2.43,0,0,1-1.57-1.15,2.39,2.39,0,0,1-.28-1.94l2.14-8.55a2.54,2.54,0,0,1,3.1-1.85l7.42,1.86,1.52-6A2.51,2.51,0,0,1,200.2,141a2.39,2.39,0,0,1,1.54,1.15,2.47,2.47,0,0,1,.29,1.93l-1.52,6,7.6,1.91a2.53,2.53,0,0,1,1.6,1.19,2.44,2.44,0,0,1,.32,1.92,2.58,2.58,0,0,1-1.2,1.6,2.55,2.55,0,0,1-2,.3l-17.51-4.39-.88,3.54,17.44,4.37a2.53,2.53,0,0,1,1.6,1.19A2.39,2.39,0,0,1,207.82,163.66Z" style="fill:#F8C100"></path><g style="opacity:0.7000000000000001"><path d="M207.82,163.66l-2.15,8.58a2.41,2.41,0,0,1-1.18,1.55,2.58,2.58,0,0,1-2,.29L195,172.19l-1.52,6a2.42,2.42,0,0,1-1.18,1.56,2.46,2.46,0,0,1-1.92.29,2.57,2.57,0,0,1-1.61-1.17,2.46,2.46,0,0,1-.3-1.94l1.53-6.1L182.5,169a2.47,2.47,0,0,1-1.56-1.16,2.43,2.43,0,0,1-.3-1.93,2.46,2.46,0,0,1,1.16-1.58,2.49,2.49,0,0,1,1.94-.28l17.5,4.39.9-3.56-17.45-4.38a2.43,2.43,0,0,1-1.57-1.15,2.39,2.39,0,0,1-.28-1.94l2.14-8.55a2.54,2.54,0,0,1,3.1-1.85l7.42,1.86,1.52-6A2.51,2.51,0,0,1,200.2,141a2.39,2.39,0,0,1,1.54,1.15,2.47,2.47,0,0,1,.29,1.93l-1.52,6,7.6,1.91a2.53,2.53,0,0,1,1.6,1.19,2.44,2.44,0,0,1,.32,1.92,2.58,2.58,0,0,1-1.2,1.6,2.55,2.55,0,0,1-2,.3l-17.51-4.39-.88,3.54,17.44,4.37a2.53,2.53,0,0,1,1.6,1.19A2.39,2.39,0,0,1,207.82,163.66Z" style="fill:#fff"></path></g></g></svg>